<?xml version="1.0" encoding="UTF-8" standalone="no"?>
<svg
   xmlns:dc="http://purl.org/dc/elements/1.1/"
   xmlns:cc="http://creativecommons.org/ns#"
   xmlns:rdf="http://www.w3.org/1999/02/22-rdf-syntax-ns#"
   xmlns:svg="http://www.w3.org/2000/svg"
   xmlns="http://www.w3.org/2000/svg"
   xmlns:sodipodi="http://sodipodi.sourceforge.net/DTD/sodipodi-0.dtd"
   xmlns:inkscape="http://www.inkscape.org/namespaces/inkscape"
   width="450"
   height="450"
   version="1.1"
   viewBox="0 0 119.06 119.06"
   id="svg8"
   sodipodi:docname="logo.svg"
   inkscape:version="0.92.4 5da689c313, 2019-01-14">
  <metadata
     id="metadata14">
    <rdf:RDF>
      <cc:Work
         rdf:about="">
        <dc:format>image/svg+xml</dc:format>
        <dc:type
           rdf:resource="http://purl.org/dc/dcmitype/StillImage" />
        <dc:title />
      </cc:Work>
    </rdf:RDF>
  </metadata>
  <defs
     id="defs12">
    <style
       id="style16">.cls-1{isolation:isolate;}.cls-2{opacity:0.75;mix-blend-mode:screen;}.cls-3{fill:#fff;}</style>
  </defs>
  <sodipodi:namedview
     pagecolor="#ffffff"
     bordercolor="#666666"
     borderopacity="1"
     objecttolerance="10"
     gridtolerance="10"
     guidetolerance="10"
     inkscape:pageopacity="0"
     inkscape:pageshadow="2"
     inkscape:window-width="1920"
     inkscape:window-height="1018"
     id="namedview10"
     showgrid="false"
     inkscape:zoom="0.86777778"
     inkscape:cx="94.888877"
     inkscape:cy="188.20676"
     inkscape:window-x="0"
     inkscape:window-y="32"
     inkscape:window-maximized="1"
     inkscape:current-layer="svg8" />
  <style
     id="style2"
     type="text/css">
	.st0{fill:#FFFFFF;}
</style>
  <g
     id="g28"
     transform="matrix(2.0670139,0,0,2.0670139,26.457778,26.457777)"
     style="fill:#ffffff">
    <path
       style="fill:#ffffff;stroke-width:0.93750006"
       inkscape:connector-curvature="0"
       id="path8"
       d="M 15,0 V 10.78125 C 15,13.125001 13.125,15 10.781249,15 H 0 C 7.125,12.750001 12.75,7.125001 15,0 Z"
       class="st0" />
    <path
       style="fill:#ffffff;stroke-width:0.93750006"
       inkscape:connector-curvature="0"
       id="path8-3"
       d="M 32,15 H 21.21875 C 18.874999,15 17,13.125 17,10.781249 V 0 c 2.249999,7.125 7.874999,12.75 15,15 z"
       class="st0" />
    <path
       style="fill:#ffffff;stroke-width:0.93750006"
       inkscape:connector-curvature="0"
       id="path8-6"
       d="M 0,17 H 10.78125 C 13.125001,17 15,18.875 15,21.218751 V 32 C 12.750001,24.875 7.125001,19.25 0,17 Z"
       class="st0" />
    <path
       style="fill:#ffffff;stroke-width:0.93750006"
       inkscape:connector-curvature="0"
       id="path8-6-7"
       d="M 17,32 V 21.21875 C 17,18.874999 18.875,17 21.218751,17 H 32 c -7.125,2.249999 -12.75,7.874999 -15,15 z"
       class="st0" />
  </g>
</svg>
